<?xml version="1.0" standalone="no"?>
<!DOCTYPE svg PUBLIC "-//W3C//DTD SVG 20010904//EN"
 "http://www.w3.org/TR/2001/REC-SVG-20010904/DTD/svg10.dtd">
<svg version="1.0" xmlns="http://www.w3.org/2000/svg"
 width="260.000000pt" height="260.000000pt" viewBox="0 0 260.000000 260.000000"
 preserveAspectRatio="xMidYMid meet">
<metadata>
Created by potrace 1.11, written by Peter Selinger 2001-2013
</metadata>
<g transform="translate(0.000000,260.000000) scale(0.100000,-0.100000)"
fill="#000000" stroke="none">
<path d="M373 1783 c2 -450 7 -836 11 -858 23 -135 95 -306 187 -441 99 -148
273 -300 434 -381 63 -32 231 -89 280 -96 58 -7 245 61 410 150 48 25 155 111
216 172 116 117 208 265 262 421 56 163 55 149 56 1033 l1 817 -930 0 -931 0
4 -817z"/>
</g>
</svg>
