<?xml version="1.0" standalone="no"?>
<!DOCTYPE svg PUBLIC "-//W3C//DTD SVG 20010904//EN"
 "http://www.w3.org/TR/2001/REC-SVG-20010904/DTD/svg10.dtd">
<svg version="1.0" xmlns="http://www.w3.org/2000/svg"
 width="256.000000pt" height="256.000000pt" viewBox="0 0 256.000000 256.000000"
 preserveAspectRatio="xMidYMid meet">
<metadata>
Created by potrace 1.11, written by Peter Selinger 2001-2013
</metadata>
<g transform="translate(0.000000,256.000000) scale(0.100000,-0.100000)"
fill="#000000" stroke="none">
<path d="M260 2544 c-120 -32 -213 -127 -245 -249 -23 -89 -23 -1941 0 -2030
32 -124 126 -218 250 -250 89 -23 1941 -23 2030 0 124 32 218 126 250 250 23
89 23 1941 0 2030 -32 124 -126 218 -250 250 -87 22 -1950 22 -2035 -1z m1228
-80 c27 -8 28 -24 3 -72 -36 -73 -49 -93 -81 -128 -28 -32 -36 -35 -78 -32
-36 2 -48 7 -50 22 -2 10 1 23 8 30 9 8 11 6 8 -9 -1 -11 2 -20 9 -20 6 0 15
-3 19 -7 13 -14 37 -8 61 14 59 55 -9 102 -71 49 -15 -14 -15 -10 4 22 22 38
34 45 45 27 10 -16 82 -12 99 6 39 38 -3 82 -66 69 -31 -7 -38 8 -10 24 19 12
66 14 100 5z m-189 -129 c2 -3 -31 -5 -75 -5 -43 0 -99 -5 -123 -11 -47 -10
-101 -43 -101 -61 0 -6 8 -4 18 4 37 33 70 42 163 48 70 4 95 2 92 -6 -3 -8
-19 -10 -43 -7 -44 6 -186 -23 -196 -39 -5 -8 -1 -9 12 -4 10 4 32 10 48 13
27 6 28 5 16 -17 -6 -12 -10 -30 -7 -41 4 -16 -2 -14 -54 12 -88 44 -90 75 -6
98 80 23 239 32 256 16z m303 -46 c84 -29 238 -108 245 -126 3 -8 0 -19 -8
-24 -10 -6 -18 -1 -26 15 -17 33 -93 81 -166 106 -113 37 -142 49 -125 50 10
0 46 -10 80 -21z m-212 1 c0 -5 -14 -10 -31 -10 -17 0 -28 4 -24 10 3 6 17 10
31 10 13 0 24 -4 24 -10z m190 -24 c115 -35 220 -94 220 -123 0 -17 21 -14
-234 -29 -128 -7 -128 -7 -122 14 3 12 9 31 12 43 8 26 -3 69 -17 69 -8 0 -8
-5 1 -15 9 -11 10 -25 1 -62 l-12 -48 -44 3 -45 4 33 22 c22 15 32 30 32 47 0
32 53 97 80 98 11 0 54 -10 95 -23z m-423 8 c-3 -3 -12 -4 -19 -1 -8 3 -5 6 6
6 11 1 17 -2 13 -5z m118 -60 c15 -10 41 -15 67 -13 46 3 52 -9 21 -43 -42
-47 -125 14 -122 89 2 24 2 25 6 5 2 -12 15 -29 28 -38z m-243 -5 c133 -76
277 -118 418 -121 68 -2 305 14 380 25 8 1 17 -2 20 -8 8 -17 -147 -45 -285
-51 -167 -8 -318 17 -440 75 -96 46 -165 95 -165 118 0 15 2 15 19 -1 11 -10
34 -26 53 -37z m83 -102 c113 -56 294 -92 437 -85 l76 3 4 -42 3 -43 -101 0
c-118 0 -230 19 -364 62 -112 36 -151 54 -213 102 -26 20 -47 32 -47 27 0 -14
87 -75 157 -110 177 -89 383 -125 580 -103 121 14 233 40 233 54 0 5 -8 7 -17
4 -10 -3 -35 -8 -55 -11 -36 -7 -37 -6 -48 34 -12 47 -8 61 21 61 11 0 18 -4
15 -9 -11 -18 15 -71 35 -71 16 0 18 3 9 19 -5 11 -14 31 -19 44 -9 22 -7 26
14 29 22 5 27 -2 48 -56 21 -56 22 -69 15 -166 -4 -58 -12 -170 -17 -250 -5
-80 -16 -163 -24 -185 l-15 -40 -15 55 c-9 30 -20 71 -26 90 l-9 35 -1 -35
c-1 -20 5 -59 12 -87 14 -51 14 -52 -11 -58 -23 -6 -24 -7 -6 -20 18 -14 18
-14 -3 -15 -13 0 -23 -5 -23 -11 0 -7 11 -9 27 -6 31 6 53 -1 53 -15 0 -6 -14
-8 -35 -5 -27 4 -35 2 -35 -10 0 -9 6 -13 15 -9 18 7 65 -10 65 -23 0 -5 -17
-9 -37 -8 -21 1 -39 -2 -41 -7 -1 -5 15 -10 35 -10 28 -1 39 -6 41 -18 3 -17
-17 -24 -55 -19 -7 1 -13 -2 -13 -7 0 -5 12 -8 28 -7 15 1 33 -1 41 -3 19 -7
-13 -20 -51 -21 -16 -1 -28 -5 -28 -11 0 -5 7 -7 15 -4 8 4 15 1 15 -5 0 -6
-7 -11 -15 -11 -8 0 -15 -4 -15 -9 0 -5 23 -7 51 -5 36 2 49 0 46 -9 -2 -7
-18 -13 -35 -15 -57 -4 -61 -5 -56 -14 3 -5 13 -8 22 -7 28 2 42 -1 42 -10 0
-4 -11 -6 -25 -3 -18 3 -25 0 -25 -12 0 -9 5 -16 10 -16 6 0 10 4 10 10 0 6 9
6 24 0 13 -5 26 -7 29 -4 2 2 10 -2 17 -11 17 -21 10 -26 -52 -34 l-53 -6 3
-45 c1 -25 5 -75 8 -111 4 -46 0 -91 -11 -144 -15 -64 -15 -79 -4 -86 18 -11
15 -13 -76 -43 -93 -30 -175 -42 -372 -51 -143 -8 -163 -4 -127 26 13 10 17
10 25 -2 6 -10 9 -10 9 -1 0 8 17 12 53 12 115 0 235 97 287 231 11 30 27 92
36 139 16 92 32 430 19 418 -4 -4 -11 -96 -16 -205 -6 -171 -11 -211 -35 -293
-35 -122 -98 -206 -190 -253 -40 -20 -154 -34 -154 -18 0 6 16 11 38 11 91 0
220 104 259 210 34 91 55 275 56 485 l1 190 -33 98 c-71 205 -213 345 -370
364 -151 18 -293 -141 -320 -359 -14 -106 -22 -232 -15 -225 3 3 10 57 15 119
19 236 92 381 215 428 66 24 105 25 170 3 166 -55 305 -270 320 -495 8 -125
-10 -425 -31 -518 -21 -92 -46 -143 -94 -193 -63 -67 -159 -104 -227 -88 -39
9 -39 9 17 10 64 1 152 35 185 72 28 32 51 78 81 163 20 58 25 95 28 206 l4
135 -9 -110 c-10 -129 -22 -203 -45 -265 -22 -63 -60 -125 -88 -143 -32 -21
-123 -47 -164 -47 -32 0 -43 12 -23 25 22 14 8 26 -23 20 -28 -5 -37 -2 -61
25 -21 24 -34 31 -53 27 -20 -4 -34 4 -62 32 -59 60 -99 153 -111 256 -12 112
-13 364 -1 470 6 44 12 100 15 125 4 31 0 23 -11 -25 -13 -55 -17 -126 -17
-340 -1 -284 -1 -282 49 -399 6 -13 5 -17 -2 -13 -18 11 -54 121 -63 193 l-9
69 4 -70 c2 -39 13 -95 24 -124 24 -65 68 -134 81 -126 5 3 12 0 16 -6 4 -8 3
-9 -4 -5 -23 14 -12 -8 20 -41 38 -39 62 -45 27 -7 l-24 27 27 -18 c26 -16 33
-44 15 -61 -11 -11 -104 95 -138 159 -18 34 -41 94 -50 132 -10 39 -18 61 -18
50 -3 -73 53 -198 132 -295 30 -38 42 -60 33 -60 -21 0 -30 -18 -17 -34 6 -7
9 -20 5 -29 -4 -11 3 -17 26 -22 17 -4 29 -9 26 -12 -3 -3 -43 6 -89 20 l-83
26 -18 88 c-25 115 -33 593 -14 788 6 72 11 148 10 170 -2 39 2 90 32 377 14
131 16 140 47 176 l33 39 55 -42 c31 -23 79 -54 106 -68z m588 -84 c16 -60 17
-73 3 -73 -9 0 -15 15 -18 45 -3 44 6 61 15 28z m-33 -38 c0 -25 -4 -45 -10
-45 -5 0 -10 20 -10 45 0 25 5 45 10 45 6 0 10 -20 10 -45z m200 -839 c0 -2
-11 -6 -25 -8 -14 -3 -25 -1 -25 3 0 5 11 9 25 9 14 0 25 -2 25 -4z m10 -74
c0 -13 -12 -22 -22 -16 -10 6 -1 24 13 24 5 0 9 -4 9 -8z m10 -97 c0 -9 -10
-15 -27 -16 -25 -2 -24 -2 7 -9 l35 -7 -42 -2 c-38 -1 -75 -21 -39 -21 9 0 16
-5 16 -11 0 -8 13 -10 38 -6 41 6 18 -7 -31 -18 -24 -5 -27 -8 -17 -20 7 -8 9
-16 4 -16 -5 -1 7 -5 26 -9 l35 -7 -38 -2 c-53 -1 -43 -24 14 -32 l44 -6 -41
-1 -40 -2 3 -40 c2 -22 -1 -40 -6 -40 -15 0 -22 -33 -9 -42 10 -6 10 -8 -2 -9
-10 0 -8 -3 5 -9 19 -8 18 -9 -4 -9 -20 -1 -21 -3 -11 -16 10 -12 10 -15 -3
-15 -25 0 -27 12 -10 85 13 58 14 84 4 168 -6 55 -10 102 -8 104 3 2 24 7 48
12 24 5 45 9 47 10 1 1 2 -6 2 -14z m-939 -187 c11 -21 11 -22 -4 -9 -10 7
-17 17 -17 22 0 15 9 10 21 -13z m942 -35 c-7 -2 -21 -2 -30 0 -10 3 -4 5 12
5 17 0 24 -2 18 -5z m-6 -29 c-3 -3 -12 -4 -19 -1 -8 3 -5 6 6 6 11 1 17 -2
13 -5z m3 -23 c0 -5 -9 -7 -20 -4 -11 3 -20 7 -20 9 0 2 9 4 20 4 11 0 20 -4
20 -9z m-670 -141 c0 -5 -2 -10 -4 -10 -3 0 -8 5 -11 10 -3 6 -1 10 4 10 6 0
11 -4 11 -10z m570 2 c0 -5 -7 -17 -16 -28 -8 -10 -14 -14 -11 -9 2 6 7 18 10
28 7 17 17 23 17 9z m-754 -55 c1 -1 4 -15 8 -30 6 -26 5 -28 -16 -22 -66 20
-116 48 -131 74 l-17 29 77 -25 c43 -13 78 -25 79 -26z m719 41 c-19 -55 -26
-70 -30 -66 -6 5 22 78 30 78 2 0 2 -6 0 -12z m-65 -28 c0 -21 -24 -60 -37
-60 -19 0 -13 53 7 62 22 10 30 9 30 -2z m-68 -40 c-2 -17 -8 -30 -12 -30 -5
0 -15 -3 -24 -6 -12 -5 -16 1 -16 23 0 35 2 38 33 41 21 1 23 -2 19 -28z
m-486 7 c3 -3 -2 -17 -12 -32 -14 -22 -15 -29 -4 -51 13 -23 51 -41 77 -36 6
1 14 -2 18 -8 4 -6 -1 -7 -11 -3 -12 4 -15 3 -10 -5 5 -9 -7 -12 -43 -12 -61
0 -69 -20 -8 -21 l42 -1 -40 -10 c-27 -6 -70 -5 -133 3 -86 11 -115 9 -99 -7
3 -4 32 -12 64 -19 l58 -12 -65 -8 c-51 -7 -60 -10 -40 -16 15 -4 -19 -7 -82
-8 -70 -1 -109 3 -114 10 -5 8 -32 10 -88 5 -96 -7 -246 3 -246 16 0 6 44 8
113 4 166 -9 234 13 132 43 -56 16 -55 17 70 27 84 7 88 8 53 18 -55 14 -47
26 17 26 37 0 55 4 55 13 0 9 21 11 83 9 45 -2 95 2 111 7 26 10 28 15 22 46
l-7 35 41 -4 c22 -2 43 -6 46 -9z m424 -16 c0 -33 -6 -36 -92 -46 l-58 -6 0
30 c0 27 4 31 38 36 20 4 44 8 52 10 49 10 60 5 60 -24z m-170 -28 l0 -33 -52
0 c-57 1 -198 17 -205 24 -3 2 0 13 5 23 10 17 23 19 131 19 l121 -1 0 -32z
m-141 -229 c10 -9 -115 -3 -129 6 -10 6 9 7 55 3 39 -3 72 -7 74 -9z"/>
<path d="M1698 2193 c6 -2 18 -2 25 0 6 3 1 5 -13 5 -14 0 -19 -2 -12 -5z"/>
<path d="M1714 2158 c-8 -26 -4 -28 39 -21 28 4 33 8 24 17 -23 24 -56 25 -63
4z"/>
<path d="M1835 2038 c10 -31 25 -47 25 -26 0 24 -11 48 -22 48 -5 0 -6 -10 -3
-22z"/>
<path d="M1022 1924 c-29 -14 -66 -43 -83 -63 -36 -42 -77 -139 -84 -196 -5
-37 -4 -36 9 11 22 76 61 156 91 188 139 144 421 69 560 -149 37 -58 82 -201
91 -292 4 -35 10 -63 14 -63 15 0 -13 161 -42 244 -32 89 -98 191 -157 242
-39 34 -139 80 -199 93 -86 18 -142 14 -200 -15z"/>
<path d="M1855 1934 c-11 -4 -14 -448 -4 -459 4 -3 7 20 7 52 -1 143 9 390 16
401 7 12 0 14 -19 6z"/>
<path d="M1173 1863 c9 -2 23 -2 30 0 6 3 -1 5 -18 5 -16 0 -22 -2 -12 -5z"/>
<path d="M1055 1836 c-27 -12 -57 -31 -65 -41 -11 -13 -3 -11 25 7 22 14 57
31 78 38 20 6 37 13 37 16 0 10 -28 2 -75 -20z"/>
<path d="M1268 1832 c67 -35 164 -118 187 -160 22 -40 32 -35 11 5 -26 51
-199 184 -237 183 -8 -1 10 -13 39 -28z"/>
<path d="M922 1691 c-17 -48 -14 -63 4 -22 8 19 13 39 11 45 -2 6 -9 -5 -15
-23z"/>
<path d="M946 1548 c-11 -101 -26 -322 -26 -389 0 -121 63 -225 175 -290 61
-35 94 -36 162 -5 70 33 136 96 167 160 22 46 27 71 32 182 3 71 9 180 13 242
3 63 4 115 0 117 -6 4 -67 8 -289 20 -58 3 -133 8 -167 11 l-61 5 -6 -53z
m291 12 c94 -5 180 -10 192 -10 19 0 21 -6 21 -51 l0 -51 -82 6 c-46 3 -130 8
-188 11 -58 3 -129 8 -157 11 l-53 5 0 43 c0 23 2 45 5 48 3 3 24 3 48 2 23
-2 119 -8 214 -14z m-247 -139 c0 -16 -5 -31 -12 -33 -8 -3 -9 -12 -1 -35 15
-41 5 -153 -13 -153 -11 0 -12 22 -8 113 3 61 7 118 10 125 7 23 24 12 24 -17z
m40 20 c0 -6 -4 -13 -10 -16 -5 -3 -10 1 -10 9 0 9 5 16 10 16 6 0 10 -4 10
-9z m50 0 c0 -17 -18 -21 -24 -6 -3 9 0 15 9 15 8 0 15 -4 15 -9z m40 -32 c0
-19 -4 -29 -12 -27 -11 4 -19 46 -11 61 9 15 23 -5 23 -34z m36 -66 c-3 -54
-9 -110 -12 -125 -12 -52 -21 -28 -18 45 1 39 3 96 3 125 1 41 4 52 18 52 14
0 15 -11 9 -97z m38 -20 c-6 -124 -10 -150 -21 -139 -8 8 -4 236 4 249 2 4 8
7 14 7 5 0 7 -46 3 -117z m-168 60 c-10 -10 -19 5 -10 18 6 11 8 11 12 0 2 -7
1 -15 -2 -18z m44 6 c0 -11 -4 -17 -10 -14 -5 3 -10 13 -10 21 0 8 5 14 10 14
6 0 10 -9 10 -21z m-40 -40 c0 -5 -4 -9 -10 -9 -5 0 -10 7 -10 16 0 8 5 12 10
9 6 -3 10 -10 10 -16z m40 2 c0 -6 -4 -13 -10 -16 -5 -3 -10 1 -10 9 0 9 5 16
10 16 6 0 10 -4 10 -9z m45 -11 c-3 -5 -8 -38 -10 -72 -2 -35 -4 -66 -4 -70
-1 -5 -6 -8 -11 -8 -10 0 -10 18 -1 148 1 6 8 12 17 12 8 0 12 -4 9 -10z m-92
-33 c10 -27 -5 -107 -20 -107 -11 0 -14 7 -9 23 3 12 6 39 6 60 0 36 13 50 23
24z m38 -110 c-5 -5 -14 -6 -20 -3 -12 8 -3 96 13 115 8 11 12 1 14 -44 2 -32
-1 -62 -7 -68z m374 16 c-9 -126 -27 -181 -77 -238 -38 -43 -125 -95 -160 -95
-15 0 -1 351 15 367 7 7 30 14 52 17 22 2 47 6 55 9 8 3 27 8 43 11 l27 6 1
-67 2 -68 8 62 c8 67 14 83 30 83 7 0 9 -30 4 -87z m-337 -40 l83 -6 -6 -136
c-4 -75 -11 -140 -16 -145 -12 -14 -70 16 -120 61 -53 48 -89 123 -89 186 0
54 -7 52 148 40z"/>
<path d="M998 1547 c6 -7 12 -23 15 -37 4 -25 4 -25 6 3 1 34 21 36 21 2 0
-19 5 -25 21 -25 18 0 19 2 9 15 -10 12 -10 15 1 15 11 0 11 2 -1 10 -13 8
-12 10 3 10 40 0 4 18 -39 18 -35 1 -43 -2 -36 -11z"/>
<path d="M1097 1543 c-13 -13 -7 -42 11 -52 24 -13 54 -9 69 9 11 13 12 13 13
-2 0 -11 8 -18 20 -18 12 0 20 7 20 18 1 16 2 16 15 -2 8 -10 21 -16 29 -13 8
3 17 1 20 -6 2 -7 5 2 6 18 2 29 2 29 9 5 6 -23 12 -25 65 -26 53 0 57 1 52
20 -3 12 -6 24 -6 29 0 16 -29 6 -35 -13 -8 -25 -55 -28 -55 -4 0 11 6 14 21
9 16 -5 20 -3 17 6 -3 8 -19 14 -39 14 -25 0 -36 -5 -41 -20 -6 -19 -6 -18 -7
3 -1 24 -16 30 -24 10 -4 -10 -6 -10 -6 0 -1 6 -14 12 -30 12 -16 0 -32 -6
-34 -12 -4 -10 -6 -10 -6 0 -1 19 -21 14 -21 -6 0 -13 -7 -18 -22 -17 -28 2
-36 25 -9 25 12 0 21 5 21 10 0 11 -43 14 -53 3z"/>
<path d="M1335 1220 c3 -5 0 -7 -8 -4 -8 3 -31 -5 -51 -16 -43 -26 -48 -37 -6
-15 16 8 40 15 55 15 16 0 25 6 25 15 0 8 -5 15 -11 15 -5 0 -7 -4 -4 -10z"/>
<path d="M1290 1170 c-13 -8 -12 -10 3 -10 9 0 17 5 17 10 0 12 -1 12 -20 0z"/>
<path d="M1293 1135 c-8 -23 0 -24 20 -3 14 15 15 18 2 18 -9 0 -18 -7 -22
-15z"/>
<path d="M1261 1058 c-15 -24 -14 -28 7 -28 12 0 18 -7 17 -22 0 -28 19 -38
24 -13 2 10 13 27 25 37 17 14 19 19 7 27 -8 5 -20 7 -28 4 -7 -3 -13 -1 -13
4 0 17 -27 10 -39 -9z"/>
<path d="M1027 1154 c-3 -4 -3 -19 0 -35 3 -18 1 -29 -6 -29 -17 0 -13 -30 4
-36 8 -4 21 -1 29 5 11 9 15 8 20 -5 9 -22 8 -22 -16 -26 -13 -2 -21 -7 -20
-12 2 -5 -2 -12 -10 -17 -10 -6 -10 -11 -1 -20 9 -9 16 -9 27 1 13 10 17 8 26
-15 11 -29 33 -29 39 1 2 10 6 21 10 24 15 11 31 63 31 99 0 31 -5 40 -27 51
-42 21 -71 21 -76 2 -4 -15 -5 -15 -6 1 -1 17 -12 22 -24 11z m98 -81 c-4 -63
-4 -63 -19 -28 -11 25 -10 34 2 53 8 12 16 22 18 22 2 0 1 -21 -1 -47z"/>
<path d="M1501 1575 c-1 -6 4 -26 10 -45 6 -19 14 -107 18 -195 l8 -160 1 150
c1 121 -3 161 -18 205 -10 30 -18 50 -19 45z"/>
<path d="M844 1195 c0 -66 1 -92 3 -57 2 34 2 88 0 120 -2 31 -3 3 -3 -63z"/>
<path d="M1103 795 c-10 -11 -7 -13 15 -11 15 2 30 -2 34 -8 4 -6 6 -1 5 12
-1 22 -17 32 -17 11 0 -8 -4 -8 -12 -1 -9 7 -17 6 -25 -3z"/>
<path d="M1190 777 c0 -7 8 -13 18 -13 9 -1 24 -3 32 -6 8 -3 12 -3 8 -1 -5 3
-8 12 -9 21 0 11 -3 12 -6 5 -3 -9 -10 -10 -24 -3 -14 8 -19 7 -19 -3z"/>
<path d="M1056 762 c-2 -4 -1 -14 5 -22 7 -12 9 -10 9 8 0 23 -5 28 -14 14z"/>
<path d="M1080 760 c0 -5 5 -10 11 -10 5 0 7 5 4 10 -3 6 -8 10 -11 10 -2 0
-4 -4 -4 -10z"/>
<path d="M1153 743 c-18 -7 -16 -23 2 -23 8 0 15 7 15 15 0 8 -1 15 -2 14 -2
0 -9 -3 -15 -6z"/>
<path d="M1098 733 c7 -3 16 -2 19 1 4 3 -2 6 -13 5 -11 0 -14 -3 -6 -6z"/>
<path d="M1180 719 c0 -11 55 -18 61 -7 4 6 8 6 11 -2 6 -18 35 -21 35 -4 0
10 -4 11 -13 3 -8 -7 -13 -6 -16 3 -5 13 -78 20 -78 7z"/>
<path d="M1300 700 c0 -5 5 -10 11 -10 5 0 7 5 4 10 -3 6 -8 10 -11 10 -2 0
-4 -4 -4 -10z"/>
<path d="M900 382 c20 -5 16 -7 -20 -12 -44 -5 -59 -23 -23 -27 15 -2 15 -1
-2 6 -16 8 -10 10 28 10 26 1 47 5 47 10 0 5 12 12 28 14 15 2 2 4 -28 4 -31
0 -44 -2 -30 -5z"/>
<path d="M1040 351 c0 -6 -15 -12 -32 -14 l-33 -4 36 -1 c25 -1 39 3 43 13 3
8 1 15 -4 15 -6 0 -10 -4 -10 -9z"/>
<path d="M745 310 c3 -5 18 -11 33 -11 21 -2 18 -4 -13 -9 l-40 -8 45 2 c25 0
44 5 42 11 -2 6 7 13 20 17 14 4 1 6 -35 7 -36 1 -56 -3 -52 -9z"/>
</g>
</svg>
